<svg width="40" height="40" viewBox="0 0 40 40" fill="none" xmlns="http://www.w3.org/2000/svg">
<path fill-rule="evenodd" clip-rule="evenodd" d="M40 20C40 31.0457 31.0457 40 20 40C8.9543 40 0 31.0457 0 20C0 8.9543 8.9543 0 20 0C31.0457 0 40 8.9543 40 20ZM10 30V13.9833H15.0492V30H10ZM12.5246 12.137C11.131 12.137 10 10.9867 10 9.5685C10 8.15029 11.131 7 12.5246 7C13.9182 7 15.0492 8.15029 15.0492 9.5685C15.0492 10.9867 13.9196 12.137 12.5246 12.137ZM33 30.0172L28 30.0172V21.8574C28 16.9533 22.0225 17.3246 22.0225 21.8574V30.0172H17V14.0004H22.0225V16.5704C24.0364 12.805 33 12.5269 33 20.1756V30.0172Z" fill="#2846F0"/>
</svg>
